<?xml version="1.0" encoding="UTF-8" standalone="no"?>
<svg width="48px" height="48px" viewBox="0 0 48 48" version="1.1" xmlns="http://www.w3.org/2000/svg" xmlns:xlink="http://www.w3.org/1999/xlink" xmlns:sketch="http://www.bohemiancoding.com/sketch/ns">
    <!-- Generator: Sketch 3.4.4 (17249) - http://www.bohemiancoding.com/sketch -->
    <title>dashboard-icon</title>
    <desc>Created with Sketch.</desc>
    <defs></defs>
    <g id="Page-1" stroke="none" stroke-width="1" fill="none" fill-rule="evenodd" sketch:type="MSPage">
        <g id="breifcase" sketch:type="MSLayerGroup">
            <path fill="#929292" d="M27.563 3.625h-7.125c-2.02 0-3.563 1.543-3.563 3.563v3.563h2.375V7.19c0-.713.475-1.188 1.188-1.188h7.125c.712 0 1.188.475 1.188 1.188v3.563h2.376V7.19c0-2.02-1.545-3.563-3.563-3.563z"/>
            <path fill="#E65100" d="M43 46.375H5c-2.613 0-4.75-2.137-4.75-4.75v-28.5c0-2.613 2.137-4.75 4.75-4.75h38c2.612 0 4.75 2.137 4.75 4.75v28.5c0 2.613-2.138 4.75-4.75 4.75z"/>
            <path fill="#FF6E40" d="M43 28.563H5c-2.613 0-4.75-2.138-4.75-4.75V13.125c0-2.613 2.137-4.75 4.75-4.75h38c2.612 0 4.75 2.137 4.75 4.75v10.688c0 2.612-2.138 4.75-4.75 4.75z"/>
            <path fill="#FFF3E0" d="M26.375 26.188h-4.75c-.713 0-1.188-.476-1.188-1.188v-2.375c0-.713.475-1.188 1.188-1.188h4.75c.712 0 1.188.475 1.188 1.188V25c0 .712-.476 1.188-1.188 1.188z"/>
        </g>
    </g>
</svg>